name ./resultDataOpenSim/trcMotMarkerGrf/sub10/grf-03-02.mot
datacolumns 19
datarows 27
range 0.48000000 0.58400000
endheader

                time	     ground_force_vx	     ground_force_vy	     ground_force_vz	     ground_force_px	     ground_force_py	     ground_force_pz	   l_ground_force_vx	   l_ground_force_vy	   l_ground_force_vz	   l_ground_force_px	   l_ground_force_py	   l_ground_force_pz	     ground_torque_x	     ground_torque_y	     ground_torque_z	   l_ground_torque_x	   l_ground_torque_y	   l_ground_torque_z	
          0.48000000	         24.95191087	        446.11247908	        -30.42002304	         -0.83793276	          0.00000000	          0.07659872	          0.00000000	          0.00000000	          0.00000000	          0.00000000	          0.00000000	          0.00000000	          0.00000000	          4.26748716	          0.00000000	          0.00000000	          0.00000000	          0.00000000	
          0.48400000	         26.55043513	        448.15215432	        -31.37784700	         -0.83650683	          0.00000000	          0.07672584	          0.00000000	          0.00000000	          0.00000000	          0.00000000	          0.00000000	          0.00000000	          0.00000000	          4.33788245	          0.00000000	          0.00000000	          0.00000000	          0.00000000	
          0.48800000	         28.86149657	        450.75175091	        -32.14682933	         -0.83513077	          0.00000000	          0.07685656	          0.00000000	          0.00000000	          0.00000000	          0.00000000	          0.00000000	          0.00000000	          0.00000000	          4.39207322	          0.00000000	          0.00000000	          0.00000000	          0.00000000	
          0.49200000	         31.69736455	        454.00673297	        -32.69771754	         -0.83377043	          0.00000000	          0.07698098	          0.00000000	          0.00000000	          0.00000000	          0.00000000	          0.00000000	          0.00000000	          0.00000000	          4.43407541	          0.00000000	          0.00000000	          0.00000000	          0.00000000	
          0.49600000	         34.76487659	        457.98850300	        -33.06933479	         -0.83237603	          0.00000000	          0.07709733	          0.00000000	          0.00000000	          0.00000000	          0.00000000	          0.00000000	          0.00000000	          0.00000000	          4.46795452	          0.00000000	          0.00000000	          0.00000000	          0.00000000	
          0.50000000	         37.75003310	        462.72879034	        -33.35447507	         -0.83089065	          0.00000000	          0.07721483	          0.00000000	          0.00000000	          0.00000000	          0.00000000	          0.00000000	          0.00000000	          0.00000000	          4.49628737	          0.00000000	          0.00000000	          0.00000000	          0.00000000	
          0.50400000	         40.40585152	        468.21770873	        -33.67438149	         -0.82925907	          0.00000000	          0.07734344	          0.00000000	          0.00000000	          0.00000000	          0.00000000	          0.00000000	          0.00000000	          0.00000000	          4.51888487	          0.00000000	          0.00000000	          0.00000000	          0.00000000	
          0.50800000	         42.61415735	        474.41637859	        -34.15168990	         -0.82745683	          0.00000000	          0.07748259	          0.00000000	          0.00000000	          0.00000000	          0.00000000	          0.00000000	          0.00000000	          0.00000000	          4.53250130	          0.00000000	          0.00000000	          0.00000000	          0.00000000	
          0.51200000	         44.40183165	        481.27141241	        -34.88535971	         -0.82547812	          0.00000000	          0.07763317	          0.00000000	          0.00000000	          0.00000000	          0.00000000	          0.00000000	          0.00000000	          0.00000000	          4.53191835	          0.00000000	          0.00000000	          0.00000000	          0.00000000	
          0.51600000	         45.91091478	        488.71667981	        -35.93038432	         -0.82333224	          0.00000000	          0.07780150	          0.00000000	          0.00000000	          0.00000000	          0.00000000	          0.00000000	          0.00000000	          0.00000000	          4.51211327	          0.00000000	          0.00000000	          0.00000000	          0.00000000	
          0.52000000	         47.33756197	        496.68091990	        -37.28742758	         -0.82104161	          0.00000000	          0.07799028	          0.00000000	          0.00000000	          0.00000000	          0.00000000	          0.00000000	          0.00000000	          0.00000000	          4.47066488	          0.00000000	          0.00000000	          0.00000000	          0.00000000	
          0.52400000	         48.86147137	        505.12044046	        -38.90205484	         -0.81862692	          0.00000000	          0.07819954	          0.00000000	          0.00000000	          0.00000000	          0.00000000	          0.00000000	          0.00000000	          0.00000000	          4.40947910	          0.00000000	          0.00000000	          0.00000000	          0.00000000	
          0.52800000	         50.58593429	        514.04190582	        -40.67174046	         -0.81610238	          0.00000000	          0.07842327	          0.00000000	          0.00000000	          0.00000000	          0.00000000	          0.00000000	          0.00000000	          0.00000000	          4.33527672	          0.00000000	          0.00000000	          0.00000000	          0.00000000	
          0.53200000	         52.50444819	        523.47848660	        -42.46290850	         -0.81348061	          0.00000000	          0.07865061	          0.00000000	          0.00000000	          0.00000000	          0.00000000	          0.00000000	          0.00000000	          0.00000000	          4.25877858	          0.00000000	          0.00000000	          0.00000000	          0.00000000	
          0.53600000	         54.50523879	        533.44640511	        -44.13899411	         -0.81077153	          0.00000000	          0.07887061	          0.00000000	          0.00000000	          0.00000000	          0.00000000	          0.00000000	          0.00000000	          0.00000000	          4.19286883	          0.00000000	          0.00000000	          0.00000000	          0.00000000	
          0.54000000	         56.41496644	        543.92411510	        -45.59575312	         -0.80798764	          0.00000000	          0.07907255	          0.00000000	          0.00000000	          0.00000000	          0.00000000	          0.00000000	          0.00000000	          0.00000000	          4.15014190	          0.00000000	          0.00000000	          0.00000000	          0.00000000	
          0.54400000	         58.06505279	        554.85813848	        -46.78998266	         -0.80514742	          0.00000000	          0.07924729	          0.00000000	          0.00000000	          0.00000000	          0.00000000	          0.00000000	          0.00000000	          0.00000000	          4.14025672	          0.00000000	          0.00000000	          0.00000000	          0.00000000	
          0.54800000	         59.35324997	        566.18096582	        -47.74655176	         -0.80227185	          0.00000000	          0.07938908	          0.00000000	          0.00000000	          0.00000000	          0.00000000	          0.00000000	          0.00000000	          0.00000000	          4.16756953	          0.00000000	          0.00000000	          0.00000000	          0.00000000	
          0.55200000	         60.28152804	        577.83015843	        -48.54507545	         -0.79938836	          0.00000000	          0.07949555	          0.00000000	          0.00000000	          0.00000000	          0.00000000	          0.00000000	          0.00000000	          0.00000000	          4.22960770	          0.00000000	          0.00000000	          0.00000000	          0.00000000	
          0.55600000	         60.96559893	        589.76255596	        -49.29635560	         -0.79653736	          0.00000000	          0.07956750	          0.00000000	          0.00000000	          0.00000000	          0.00000000	          0.00000000	          0.00000000	          0.00000000	          4.31694804	          0.00000000	          0.00000000	          0.00000000	          0.00000000	
          0.56000000	         61.61671979	        601.95650277	        -50.11435897	         -0.79377048	          0.00000000	          0.07960642	          0.00000000	          0.00000000	          0.00000000	          0.00000000	          0.00000000	          0.00000000	          0.00000000	          4.41480309	          0.00000000	          0.00000000	          0.00000000	          0.00000000	
          0.56400000	         62.49901466	        614.40147738	        -51.08932101	         -0.79114059	          0.00000000	          0.07961452	          0.00000000	          0.00000000	          0.00000000	          0.00000000	          0.00000000	          0.00000000	          0.00000000	          4.50608643	          0.00000000	          0.00000000	          0.00000000	          0.00000000	
          0.56800000	         63.87255699	        627.09370045	        -52.26900591	         -0.78869211	          0.00000000	          0.07959715	          0.00000000	          0.00000000	          0.00000000	          0.00000000	          0.00000000	          0.00000000	          0.00000000	          4.57514258	          0.00000000	          0.00000000	          0.00000000	          0.00000000	
          0.57200000	         65.93843821	        640.04722657	        -53.65117453	         -0.78646004	          0.00000000	          0.07955570	          0.00000000	          0.00000000	          0.00000000	          0.00000000	          0.00000000	          0.00000000	          0.00000000	          4.61101142	          0.00000000	          0.00000000	          0.00000000	          0.00000000	
          0.57600000	         68.80149246	        653.29730898	        -55.18582703	         -0.78447116	          0.00000000	          0.07948258	          0.00000000	          0.00000000	          0.00000000	          0.00000000	          0.00000000	          0.00000000	          0.00000000	          4.60926527	          0.00000000	          0.00000000	          0.00000000	          0.00000000	
          0.58000000	         72.46014049	        666.87772347	        -56.78475455	         -0.78273860	          0.00000000	          0.07937212	          0.00000000	          0.00000000	          0.00000000	          0.00000000	          0.00000000	          0.00000000	          0.00000000	          4.57205660	          0.00000000	          0.00000000	          0.00000000	          0.00000000	
          0.58400000	         76.82525329	        680.78444540	        -58.33673204	         -0.78125575	          0.00000000	          0.07922073	          0.00000000	          0.00000000	          0.00000000	          0.00000000	          0.00000000	          0.00000000	          0.00000000	          4.50672354	          0.00000000	          0.00000000	          0.00000000	          0.00000000	
